<svg width="29" height="30" viewBox="0 0 29 30" fill="none" xmlns="http://www.w3.org/2000/svg">
<path d="M14.2754 18.5898C16.2741 18.5898 17.9004 16.9636 17.9004 14.9648C17.9004 12.9661 16.2741 11.3398 14.2754 11.3398C12.2767 11.3398 10.6504 12.9661 10.6504 14.9648C10.6504 16.9636 12.2767 18.5898 14.2754 18.5898ZM14.2754 12.2461C15.7748 12.2461 16.9941 13.4655 16.9941 14.9648C16.9941 16.4642 15.7748 17.6836 14.2754 17.6836C12.776 17.6836 11.5566 16.4642 11.5566 14.9648C11.5566 13.4655 12.776 12.2461 14.2754 12.2461Z" fill="#F4D059"/>
<path d="M14.2754 16.7773C15.275 16.7773 16.0879 15.9644 16.0879 14.9648C16.0879 13.9652 15.275 13.1523 14.2754 13.1523C13.2758 13.1523 12.4629 13.9652 12.4629 14.9648C12.4629 15.9644 13.2758 16.7773 14.2754 16.7773ZM14.2754 14.0586C14.7752 14.0586 15.1816 14.465 15.1816 14.9648C15.1816 15.4646 14.7752 15.8711 14.2754 15.8711C13.7756 15.8711 13.3691 15.4646 13.3691 14.9648C13.3691 14.465 13.7756 14.0586 14.2754 14.0586Z" fill="#F4D059"/>
<path d="M11.2984 20.3181L12.0904 19.9392C12.1611 19.9705 12.2322 20.0004 12.3038 20.0281L12.5952 20.8555H15.9551L16.2474 20.0281C16.3185 20 16.3897 19.9705 16.4608 19.9392L17.2529 20.3181L19.6291 17.9419L19.2502 17.1498C19.2815 17.0791 19.3114 17.008 19.3391 16.9364L20.166 16.645V13.2851L19.3386 12.9928C19.3105 12.9217 19.2811 12.8506 19.2498 12.7794L19.6286 11.9874L17.2524 9.61117L16.4604 9.98998C16.3897 9.95872 16.3185 9.92881 16.2469 9.90117L15.9556 9.07422H12.5957L12.3034 9.90163C12.2323 9.92972 12.1611 9.95917 12.09 9.99044L11.2979 9.61163L8.92172 11.9878L9.30053 12.7799C9.26927 12.8506 9.23936 12.9217 9.21172 12.9933L8.38477 13.2847V16.6446L9.21217 16.9368C9.24027 17.008 9.26972 17.0791 9.30098 17.1503L8.92217 17.9423L11.2984 20.3181ZM9.29102 16.0034V13.9258L9.92177 13.7033L9.99291 13.4958C10.0523 13.3223 10.1252 13.1474 10.2095 12.9761L10.306 12.779L10.0169 12.1745L11.486 10.7055L12.0904 10.9946L12.2875 10.898C12.4588 10.8138 12.6337 10.7413 12.8073 10.6815L13.0148 10.6103L13.2368 9.98047H15.3144L15.5369 10.6112L15.7444 10.6824C15.918 10.7417 16.0929 10.8147 16.2642 10.899L16.4613 10.9955L17.0657 10.7064L18.5348 12.1754L18.2457 12.7799L18.3422 12.977C18.4265 13.1483 18.499 13.3232 18.5588 13.4967L18.6299 13.7043L19.2598 13.9263V16.0039L18.629 16.2263L18.5579 16.4339C18.4985 16.6074 18.4256 16.7823 18.3413 16.9536L18.2448 17.1507L18.5339 17.7552L17.0648 19.2242L16.4604 18.9351L16.2633 19.0316C16.092 19.1159 15.9171 19.1884 15.7435 19.2482L15.536 19.3194L15.314 19.9492H13.2364L13.0139 19.3185L12.8064 19.2473C12.6328 19.188 12.4579 19.115 12.2866 19.0307L12.0895 18.9342L11.485 19.2233L10.016 17.7543L10.3051 17.1498L10.2086 16.9527C10.1243 16.7814 10.0518 16.6065 9.992 16.433L9.92086 16.2254L9.29102 16.0034Z" fill="#F4D059"/>
<path d="M6.11914 21.7617H1.58789C0.838422 21.7617 0.228516 22.3716 0.228516 23.1211V27.6523C0.228516 28.4018 0.838422 29.0117 1.58789 29.0117H6.11914C6.86861 29.0117 7.47852 28.4018 7.47852 27.6523V23.1211C7.47852 22.3716 6.86861 21.7617 6.11914 21.7617ZM6.57227 27.6523C6.57227 27.902 6.36881 28.1055 6.11914 28.1055H1.58789C1.33822 28.1055 1.13477 27.902 1.13477 27.6523V23.1211C1.13477 22.8714 1.33822 22.668 1.58789 22.668H6.11914C6.36881 22.668 6.57227 22.8714 6.57227 23.1211V27.6523Z" fill="#F4D059"/>
<path d="M26.9629 11.3398H22.4316C21.6822 11.3398 21.0723 11.9498 21.0723 12.6992V17.2305C21.0723 17.9799 21.6822 18.5898 22.4316 18.5898H26.9629C27.7124 18.5898 28.3223 17.9799 28.3223 17.2305V12.6992C28.3223 11.9498 27.7124 11.3398 26.9629 11.3398ZM27.416 17.2305C27.416 17.4801 27.2126 17.6836 26.9629 17.6836H22.4316C22.182 17.6836 21.9785 17.4801 21.9785 17.2305V12.6992C21.9785 12.4495 22.182 12.2461 22.4316 12.2461H26.9629C27.2126 12.2461 27.416 12.4495 27.416 12.6992V17.2305Z" fill="#F4D059"/>
<path d="M4.30664 8.16797H8.83789C9.58736 8.16797 10.1973 7.55806 10.1973 6.80859V2.27734C10.1973 1.52788 9.58736 0.917969 8.83789 0.917969H4.30664C3.55717 0.917969 2.94727 1.52788 2.94727 2.27734V6.80859C2.94727 7.55806 3.55717 8.16797 4.30664 8.16797ZM3.85352 2.27734C3.85352 2.02767 4.05697 1.82422 4.30664 1.82422H8.83789C9.08756 1.82422 9.29102 2.02767 9.29102 2.27734V6.80859C9.29102 7.05827 9.08756 7.26172 8.83789 7.26172H4.30664C4.05697 7.26172 3.85352 7.05827 3.85352 6.80859V2.27734Z" fill="#F4D059"/>
<path d="M2.94731 26.1054L2.36142 25.5195L1.7207 26.1603L2.94731 27.3869L5.98642 24.3478L5.3457 23.707L2.94731 26.1054Z" fill="#F4D059"/>
<path d="M8.70517 3.504L8.06445 2.86328L5.66606 5.26167L5.08017 4.67578L4.43945 5.3165L5.66606 6.54311L8.70517 3.504Z" fill="#F4D059"/>
<path d="M23.7911 15.6835L23.2052 15.0977L22.5645 15.7384L23.7911 16.965L26.8302 13.9259L26.1895 13.2852L23.7911 15.6835Z" fill="#F4D059"/>
<path d="M20.9617 20.8693L21.1815 21.7483L23.757 21.1044C21.6767 24.3271 18.1351 26.2932 14.275 26.2932C12.617 26.2932 11.0193 25.9434 9.52666 25.2533L9.14648 26.0757C10.7592 26.8215 12.4847 27.1994 14.275 27.1994C18.3798 27.1994 22.1498 25.1422 24.41 21.7601L24.7005 24.0837L25.5995 23.9714L25.0829 19.8389L20.9617 20.8693Z" fill="#F4D059"/>
<path d="M5.20077 16.8823L4.31944 16.6716L3.76662 18.9852C3.22469 17.644 2.94738 16.2959 2.94738 14.9647C2.94738 13.2926 3.30308 11.6827 4.00452 10.1788L3.183 9.79541C2.42538 11.4203 2.04113 13.1594 2.04113 14.9647C2.04113 16.407 2.33792 17.8619 2.91792 19.3051L0.900609 18.1927L0.462891 18.9866L4.2048 21.0492L5.20077 16.8823Z" fill="#F4D059"/>
<path d="M14.9796 4.61914L13.506 3.63677H14.275C18.514 3.63677 22.366 5.97399 24.3271 9.73628L25.1305 9.31714C23.0131 5.25442 18.8534 2.73052 14.275 2.73052H13.506L14.9796 1.74814L14.4771 0.994141L11.1924 3.18364L14.4766 5.37314L14.9796 4.61914Z" fill="#F4D059"/>
</svg>
