<svg width="19" height="20" viewBox="0 0 19 20" fill="none" xmlns="http://www.w3.org/2000/svg">
<g clip-path="url(#clip0_1_5360)">
<path d="M9.625 2.17578C12.1281 2.17578 12.4281 2.18516 13.4125 2.23203C14.0031 2.24141 14.5938 2.34453 15.1562 2.55078C15.5594 2.70078 15.9344 2.94453 16.2344 3.24453C16.5437 3.54453 16.7875 3.91953 16.9375 4.32266C17.1437 4.87578 17.2562 5.46641 17.2562 6.06641C17.3031 7.06016 17.3125 7.36016 17.3125 9.85391C17.3125 12.3477 17.3031 12.6477 17.2562 13.632C17.2469 14.2227 17.1437 14.8133 16.9375 15.3758C16.6187 16.1914 15.9719 16.8383 15.1562 17.157C14.5938 17.3633 14.0125 17.4758 13.4125 17.4758C12.4187 17.5133 12.1281 17.532 9.625 17.532C7.12187 17.532 6.82188 17.5227 5.8375 17.4758C5.24687 17.4664 4.65625 17.3539 4.09375 17.157C3.69062 17.007 3.31562 16.7633 3.01562 16.4539C2.70625 16.1539 2.4625 15.7789 2.3125 15.3758C2.10318 14.8182 1.99523 14.2276 1.99375 13.632C1.94687 12.657 1.9375 12.357 1.9375 9.85391C1.9375 7.35078 1.94687 7.06016 1.99375 6.06641C2.00313 5.47578 2.10625 4.88516 2.3125 4.33203C2.4625 3.92891 2.70625 3.55391 3.01562 3.25391C3.325 2.94453 3.69062 2.70078 4.09375 2.55078C4.65625 2.34453 5.2375 2.24141 5.8375 2.23203C6.82188 2.18516 7.12187 2.17578 9.625 2.17578ZM9.625 0.488281C7.075 0.488281 6.75625 0.497656 5.7625 0.544531C4.98438 0.553906 4.21563 0.703906 3.48438 0.985156C2.86011 1.22325 2.29293 1.59002 1.81968 2.06165C1.34644 2.53328 0.977723 3.09921 0.7375 3.72266C0.465625 4.44453 0.325 5.21328 0.30625 5.99141C0.259375 6.99453 0.25 7.31328 0.25 9.85391C0.25 12.3945 0.259375 12.7133 0.30625 13.7164C0.325 14.4945 0.465625 15.2633 0.746875 15.9945C0.988097 16.6159 1.35608 17.1802 1.8274 17.6515C2.29871 18.1228 2.86302 18.4908 3.48438 18.732C4.21563 19.0039 4.98438 19.1445 5.7625 19.1633C6.76562 19.2102 7.08437 19.2195 9.625 19.2195C12.1656 19.2195 12.4937 19.2102 13.4875 19.1633C14.2656 19.1445 15.0344 19.0039 15.7656 18.732C16.387 18.4908 16.9513 18.1228 17.4226 17.6515C17.8939 17.1802 18.2619 16.6159 18.5031 15.9945C18.775 15.2633 18.925 14.4945 18.9438 13.7164C18.9906 12.7133 19 12.3945 19 9.85391C19 7.31328 18.9906 6.98516 18.9438 5.99141C18.9297 5.21531 18.7806 4.44759 18.5031 3.72266C18.2634 3.10042 17.896 2.53533 17.4245 2.06382C16.953 1.59231 16.3879 1.22486 15.7656 0.985156C15.0344 0.713281 14.2656 0.563281 13.4875 0.544531C12.4937 0.497656 12.175 0.488281 9.625 0.488281ZM9.625 5.04453C6.97188 5.04453 4.81562 7.20078 4.81562 9.85391C4.81562 12.507 6.97188 14.6633 9.63438 14.6633C12.2875 14.6633 14.4438 12.507 14.4438 9.85391C14.4405 8.57775 13.9315 7.35492 13.0282 6.45341C12.125 5.55191 10.9012 5.04527 9.625 5.04453ZM9.625 12.9758C7.9 12.9758 6.50313 11.5789 6.50313 9.85391C6.50313 8.12891 7.9 6.72266 9.625 6.72266C11.35 6.72266 12.7469 8.11953 12.7469 9.84453V9.85391C12.7469 11.5789 11.35 12.9758 9.625 12.9758ZM14.6313 3.73203C15.25 3.73203 15.7563 4.23828 15.7563 4.85703C15.7563 5.47578 15.25 5.98203 14.6313 5.98203C14.0125 5.98203 13.5156 5.47578 13.5063 4.86641C13.5063 4.23828 14.0031 3.73203 14.6313 3.73203C14.6219 3.73203 14.6219 3.73203 14.6313 3.73203Z" fill="white"/>
</g>
<defs>
<clipPath id="clip0_1_5360">
<rect width="18.75" height="18.75" fill="white" transform="translate(0.25 0.480469)"/>
</clipPath>
</defs>
</svg>
