<svg width="30" height="30" viewBox="0 0 30 30" fill="none" xmlns="http://www.w3.org/2000/svg">
<g clip-path="url(#clip0_1_6420)">
<path d="M16.198 14.7223V13.6574H19.4492V9.94746H17.6084L24.7451 0.664062H19.8627L14.8047 7.23438L9.74668 0.664062H4.86426L12.0066 9.94746H10.1658V13.6574H13.417V14.7223C9.98457 15.3736 7.38477 18.3926 7.38477 22.0119C7.38477 26.107 10.7152 29.4375 14.8104 29.4375C18.9055 29.4375 22.2359 26.107 22.2359 22.0119C22.2303 18.3926 19.6248 15.3736 16.198 14.7223ZM20.3158 1.59297H22.859L16.4303 9.94746H13.8871L15.3201 8.08398L15.3881 7.99902L20.3158 1.59297ZM9.29355 1.59297L14.2213 7.99902L12.9525 9.65293L6.75039 1.59297H9.29355ZM11.0891 12.7285V10.8707H12.001H16.8834H18.509V12.7285H16.1867H13.4H11.0891ZM14.3402 14.5863V13.6574H15.2691V14.5863H14.3402ZM14.8047 28.5086C11.2193 28.5086 8.30801 25.5916 8.30801 22.0119C8.30801 18.4266 11.225 15.5152 14.8047 15.5152C18.39 15.5152 21.3014 18.4322 21.3014 22.0119C21.3014 25.5973 18.39 28.5086 14.8047 28.5086Z" fill="#F4D059"/>
<path d="M14.8051 16.4453C11.7352 16.4453 9.2373 18.9432 9.2373 22.0131C9.2373 25.083 11.7352 27.5809 14.8051 27.5809C17.875 27.5809 20.3729 25.083 20.3729 22.0131C20.3729 18.9432 17.875 16.4453 14.8051 16.4453ZM14.8051 26.652C12.2449 26.652 10.1662 24.5676 10.1662 22.0131C10.1662 19.4529 12.2506 17.3742 14.8051 17.3742C17.3652 17.3742 19.4439 19.4586 19.4439 22.0131C19.4439 24.5732 17.3652 26.652 14.8051 26.652Z" fill="#F4D059"/>
<path d="M14.8041 18.1875L13.9658 20.776H11.2471L13.4504 22.3732L12.6008 24.9617L14.8041 23.3645L17.0074 24.9617L16.1635 22.3789L18.3668 20.7816H15.648L14.8041 18.1875ZM15.2402 22.5318L14.8041 22.2146L14.368 22.5318L14.5322 22.0221L14.0961 21.7049H14.6342L14.7984 21.1951L14.9627 21.7049H15.5008L15.0646 22.0221L15.2402 22.5318Z" fill="#F4D059"/>
<path d="M14.3408 11.3398H15.2697V12.2687H14.3408V11.3398Z" fill="#F4D059"/>
<path d="M16.1982 11.3398H17.1271V12.2687H16.1982V11.3398Z" fill="#F4D059"/>
<path d="M12.4834 11.3398H13.4123V12.2687H12.4834V11.3398Z" fill="#F4D059"/>
</g>
<defs>
<clipPath id="clip0_1_6420">
<rect width="29" height="29" fill="white" transform="translate(0.303711 0.550781)"/>
</clipPath>
</defs>
</svg>
