<svg width="14" height="15" viewBox="0 0 14 15" fill="none" xmlns="http://www.w3.org/2000/svg">
<path d="M13.6055 7.3125C13.6055 3.58458 10.5834 0.5625 6.85547 0.5625V1.6875C9.96207 1.6875 12.4805 4.2059 12.4805 7.3125H13.6055Z" fill="white"/>
<path fill-rule="evenodd" clip-rule="evenodd" d="M0.115216 3.8389C0.0607165 4.5701 0.241424 5.25829 0.490973 5.93215C1.00728 7.32573 1.79321 8.55873 2.74552 9.69425C4.03342 11.2255 5.57086 12.4384 7.3722 13.313C8.18395 13.7058 9.02439 14.0098 9.93653 14.0585C10.5618 14.0929 11.0735 13.8943 11.5486 13.4449C11.7556 13.249 11.9681 13.0303 12.181 12.8112C12.2877 12.7015 12.3946 12.5915 12.5009 12.4843C12.9713 12.0111 12.9741 11.4348 12.5066 10.9645C11.9501 10.4025 11.3908 9.84335 10.8286 9.28707C10.3697 8.83114 9.79598 8.83401 9.33704 9.28707C9.19777 9.42515 9.08713 9.53141 8.98288 9.63154C8.82519 9.78299 8.68209 9.92043 8.4766 10.1328C8.38195 10.2302 8.33386 10.2417 8.1869 10.1872C8.03993 10.1328 7.72222 9.96357 7.50423 9.8288C6.49169 9.1951 5.64265 8.375 4.89114 7.45168C4.51825 6.99289 4.18552 6.50256 3.95605 5.952C3.90728 5.84017 3.91589 5.76562 4.00768 5.67673C4.1244 5.56387 4.22006 5.4724 4.30848 5.38785C4.48515 5.21893 4.633 5.07755 4.86238 4.84825C5.34139 4.36652 5.33853 3.80163 4.85951 3.31703C4.67779 3.13345 4.49479 2.95115 4.31222 2.76928L4.31077 2.76783C4.22005 2.67746 4.12945 2.5872 4.03915 2.49694C3.75807 2.21308 3.47693 1.92916 3.19298 1.65104C2.73404 1.20085 2.1575 1.19798 1.69856 1.65104C1.69856 1.65104 0.999905 2.31662 0.648733 2.68905C0.297562 3.06149 0.149636 3.38871 0.115216 3.8389ZM2.62384 2.67159C2.5258 2.57547 2.51511 2.56498 2.44687 2.56498C2.37718 2.56498 2.3418 2.5979 2.27741 2.65782C2.26703 2.66748 2.2559 2.67784 2.24375 2.68887C2.15621 2.76837 1.47668 3.44941 1.47668 3.44941C1.47668 3.44941 1.30385 3.62489 1.25009 3.79474C1.19634 3.96459 1.22983 4.37306 1.27631 4.60589C1.65543 6.50491 3.0053 8.37603 4.20272 9.64041C5.41924 10.925 7.15232 12.1898 9.21448 12.8265C9.47614 12.9073 10.161 12.9743 10.3714 12.8943C10.5818 12.8144 10.7853 12.623 10.7853 12.623L11.3784 12.0184C11.3784 12.0184 11.5659 11.8493 11.5659 11.7457C11.5659 11.6421 11.5138 11.575 11.4433 11.5043C10.7729 10.8306 10.4034 10.458 10.335 10.3863L10.3227 10.3735C10.2177 10.2635 10.1678 10.2111 10.0782 10.2111C9.99195 10.2111 9.90642 10.3013 9.85176 10.3589L9.83958 10.3716C9.12868 11.1129 8.88504 11.3066 8.44997 11.3412C7.73842 11.3976 6.3567 10.6277 4.89389 9.14411C3.43109 7.66056 2.72605 6.23646 2.80185 5.70998C2.8733 5.21368 3.14541 4.94906 3.22099 4.87556L3.23251 4.86427C3.28578 4.81079 3.85724 4.26394 3.85724 4.26394C3.85724 4.26394 3.9814 4.15245 3.9814 4.08798C3.9814 4.028 3.95468 4.00136 3.91752 3.9643L3.909 3.95578C3.19659 3.23918 2.78976 2.83211 2.68851 2.73457C2.66337 2.71034 2.64205 2.68944 2.62384 2.67159Z" fill="white"/>
<path d="M6.85547 2.8125C9.34075 2.8125 11.3555 4.82722 11.3555 7.3125H10.2305C10.2305 5.44854 8.71943 3.9375 6.85547 3.9375V2.8125Z" fill="white"/>
</svg>
