<svg width="12" height="15" viewBox="0 0 12 15" fill="none" xmlns="http://www.w3.org/2000/svg">
<path fill-rule="evenodd" clip-rule="evenodd" d="M5.85547 14.0625C2.35547 10.4955 0.605469 7.7455 0.605469 5.8125C0.605469 2.91301 2.95597 0.5625 5.85547 0.5625C8.75496 0.5625 11.1055 2.91301 11.1055 5.8125C11.1055 7.7455 9.35547 10.4955 5.85547 14.0625ZM5.85547 12.4875C8.60547 9.55628 9.98047 7.33128 9.98047 5.8125C9.98047 3.53433 8.13364 1.6875 5.85547 1.6875C3.57729 1.6875 1.73047 3.53433 1.73047 5.8125C1.73047 7.33128 3.10547 9.55628 5.85547 12.4875ZM5.85547 8.0625C4.61283 8.0625 3.60547 7.05514 3.60547 5.8125C3.60547 4.56986 4.61283 3.5625 5.85547 3.5625C7.09811 3.5625 8.10547 4.56986 8.10547 5.8125C8.10547 7.05514 7.09811 8.0625 5.85547 8.0625ZM5.85547 6.9375C6.47679 6.9375 6.98047 6.43382 6.98047 5.8125C6.98047 5.19118 6.47679 4.6875 5.85547 4.6875C5.23415 4.6875 4.73047 5.19118 4.73047 5.8125C4.73047 6.43382 5.23415 6.9375 5.85547 6.9375Z" fill="white"/>
</svg>
