<svg width="30" height="28" viewBox="0 0 30 28" fill="none" xmlns="http://www.w3.org/2000/svg">
<path d="M19.0103 10.4479C18.5622 9.59326 17.5014 9.26172 16.6447 9.71029L9.58173 13.4157C8.72388 13.8653 8.39384 14.9229 8.84372 15.7813L12.7157 23.1633C13.1646 24.0182 14.2249 24.35 15.0817 23.9009L22.1451 20.1959C23.0026 19.7461 23.3326 18.6879 22.8827 17.8303L19.0103 10.4479ZM21.7486 19.4404L14.6852 23.1453C14.2463 23.3769 13.7019 23.2057 13.4712 22.7668L9.59922 15.3847C9.3705 14.9486 9.53286 14.4044 9.97779 14.1711L17.0408 10.4657C17.4873 10.2327 18.0278 10.4109 18.2548 10.8443L22.1272 18.2267C22.3587 18.6682 22.1881 19.2099 21.7486 19.4404Z" fill="#F4D059"/>
<path d="M24.8855 13.9655L28.7365 8.9417C29.0521 8.52802 29.1033 7.98214 28.873 7.51728C28.6469 7.05243 28.1821 6.76674 27.666 6.76674H27.3718V2.32714C27.3718 1.39743 26.6169 0.642578 25.6872 0.642578H21.9471C21.0174 0.642578 20.2625 1.39743 20.2625 2.32714V6.7667H19.9683C19.9213 6.7667 19.8787 6.77092 19.8318 6.77523L18.9234 5.03949C18.3221 3.90081 16.9062 3.45728 15.7675 4.05861L15.0169 4.45096L14.3218 3.12033C13.891 2.30151 12.876 1.98592 12.0572 2.41665L10.5433 3.20989C9.66899 2.31004 8.37252 1.65327 6.92678 1.40165C3.97561 0.881359 1.28031 2.15651 0.913549 4.24621C0.542519 6.33592 2.64502 8.45548 5.59193 8.97577C5.78384 9.00989 5.97149 9.03121 6.15914 9.04827L6.18046 9.08665L5.42991 9.47901C4.28693 10.0761 3.84771 11.4919 4.44477 12.6349L11.4773 26.0431C12.0882 27.2089 13.5321 27.6202 14.6332 27.0283L24.9751 21.6078C26.1125 21.0083 26.56 19.6025 25.9559 18.4477L23.8748 14.4858C24.2713 14.4645 24.6381 14.2811 24.8855 13.9655ZM5.48105 7.76037L5.67296 8.12287C3.22502 7.66655 1.46796 6.00331 1.7537 4.39125C2.03943 2.77067 4.2912 1.80258 6.77752 2.24184C7.95031 2.44655 9.00796 2.94125 9.75428 3.62365L6.18899 5.49155C5.33959 5.93913 5.0646 6.97 5.48105 7.76037ZM25.201 18.8443C25.5763 19.5686 25.3161 20.4572 24.5784 20.853L14.2408 26.2735C13.5158 26.653 12.6159 26.3715 12.2363 25.6466L5.19958 12.2383C4.82002 11.5133 5.10149 10.6135 5.82649 10.2339L6.95237 9.64537C7.15708 9.53876 7.23384 9.28714 7.1358 9.08243C8.09109 9.05258 8.97389 8.83508 9.70315 8.46405C10.2036 8.82868 10.9056 8.93317 11.5583 8.59625C12.4217 8.14693 12.7556 7.07469 12.3046 6.20802C11.8483 5.34228 10.7779 5.00964 9.91212 5.4617C9.06771 5.90523 8.7308 6.94581 9.14447 7.79876C8.46212 8.11008 7.61344 8.26787 6.69653 8.23375L6.23594 7.36376C6.03209 6.97302 6.16946 6.46356 6.58565 6.2464L12.4496 3.17155C12.8548 2.95831 13.3537 3.11611 13.567 3.51699L14.4626 5.22287C14.5671 5.43206 14.8327 5.51338 15.0383 5.40199L16.1642 4.81346C16.855 4.44277 17.7699 4.6839 18.1643 5.43611L19.0514 7.1292C18.5692 7.55972 18.4468 8.34809 18.8935 8.9417L22.4162 13.5348L25.201 18.8443ZM9.88223 7.35949C9.72017 6.9288 9.89502 6.43405 10.3087 6.21655C10.4451 6.14405 10.5902 6.1142 10.7309 6.1142C10.6115 6.60037 10.313 7.02258 9.88223 7.35949ZM11.4985 6.53214C11.5156 6.55346 11.5327 6.57478 11.5497 6.60464C11.7805 7.05729 11.6051 7.61529 11.1616 7.8414C10.9612 7.94802 10.7394 7.96934 10.5219 7.91817C10.9825 7.53434 11.3194 7.06523 11.4985 6.53214ZM23.4184 13.4452L19.5716 8.4214C19.3224 8.08905 19.5528 7.61964 19.9683 7.61964H20.689C20.9235 7.61964 21.1155 7.42773 21.1155 7.19317V2.32714C21.1155 1.86655 21.4908 1.49552 21.9471 1.49552H25.6872C26.1478 1.49552 26.5188 1.86655 26.5188 2.32714V7.19317C26.5188 7.42773 26.7108 7.61964 26.9453 7.61964H27.666C27.858 7.61964 28.0243 7.72199 28.1096 7.89684C28.1949 8.0717 28.1778 8.26787 28.0584 8.4214L24.2074 13.4452C24.0197 13.6883 23.606 13.6883 23.4184 13.4452Z" fill="#F4D059"/>
<path d="M16.8347 13.4366C16.6056 13.3866 16.377 13.5316 16.3266 13.7615L15.0676 19.4934C15.0172 19.7237 15.1626 19.9511 15.3924 20.0015C15.6265 20.0521 15.8506 19.9037 15.9005 19.6766L17.1595 13.9447C17.2099 13.7144 17.0646 13.487 16.8347 13.4366Z" fill="#F4D059"/>
<path d="M14.8408 14.8429C14.4863 14.1574 13.6388 13.8871 12.9516 14.2411C12.2613 14.598 11.9942 15.4431 12.3494 16.1303C12.7038 16.8159 13.5496 17.0877 14.239 16.7325C14.9293 16.3757 15.1964 15.5306 14.8412 14.8434C14.8412 14.8433 14.8412 14.8433 14.8408 14.8429ZM13.8475 15.9745C13.5768 16.115 13.2466 16.0086 13.1074 15.7388C12.9701 15.4735 13.0688 15.1411 13.3431 14.9991C13.6123 14.8596 13.9445 14.9672 14.0836 15.2353C14.2208 15.5019 14.1207 15.8331 13.8475 15.9745Z" fill="#F4D059"/>
<path d="M17.833 16.8796C17.1467 17.2345 16.8768 18.082 17.2312 18.7684C17.5867 19.456 18.4295 19.7271 19.1204 19.371C19.8076 19.0158 20.0774 18.1682 19.7226 17.4814C19.3677 16.7955 18.5219 16.524 17.833 16.8796ZM18.7288 18.613C18.459 18.7514 18.1293 18.6486 17.9892 18.3769C17.8501 18.1083 17.9563 17.7763 18.2249 17.6372C18.4933 17.4981 18.8258 17.6043 18.9645 17.8729C19.1054 18.1459 18.9971 18.4746 18.7288 18.613Z" fill="#F4D059"/>
</svg>
