<svg width="19" height="14" viewBox="0 0 19 14" fill="none" xmlns="http://www.w3.org/2000/svg">
<path d="M18.5959 2.56222C18.3615 1.78409 17.7334 1.18409 16.9459 0.987219C15.4834 0.621594 9.62401 0.621594 9.62401 0.621594C9.62401 0.621594 3.86776 0.593469 2.40526 0.959094C1.57088 1.16534 0.895882 1.76534 0.605257 2.56222C0.211507 3.95909 0.249007 6.85597 0.249007 6.85597C0.249007 6.85597 0.211507 9.74347 0.605257 11.1403C0.895882 11.9466 1.57088 12.5466 2.40526 12.7435C3.86776 13.1185 9.61463 13.0903 9.61463 13.0903C9.61463 13.0903 15.3615 13.1091 16.8334 12.7435C17.2397 12.6467 17.615 12.4491 17.9247 12.1689C18.2344 11.8887 18.4685 11.535 18.6053 11.1403C18.999 9.76222 18.999 6.85597 18.999 6.85597C18.999 6.85597 18.9896 3.95909 18.5959 2.56222ZM7.40213 10.4278V3.30284L12.7459 6.86534L7.40213 10.4278Z" fill="white"/>
</svg>
