<svg width="15" height="15" viewBox="0 0 15 15" fill="none" xmlns="http://www.w3.org/2000/svg">
<g clip-path="url(#clip0_1_5733)">
<path d="M13.994 4.01562H5.16406C4.63686 4.01562 4.20947 4.44301 4.20947 4.97022V13.8002C4.20947 14.3274 4.63686 14.7548 5.16406 14.7548H13.994C14.5212 14.7548 14.9486 14.3274 14.9486 13.8002V4.97022C14.9486 4.44301 14.5212 4.01562 13.994 4.01562ZM14.4713 4.97022V13.8002C14.4707 13.8414 14.4648 13.8824 14.4537 13.9221L9.9165 9.3852L14.4537 4.84827C14.4648 4.88798 14.4707 4.92897 14.4713 4.97022ZM13.994 4.49292C14.0353 4.49348 14.0763 4.4995 14.116 4.51082L9.57905 9.04775L5.04212 4.51082C5.0818 4.4995 5.1228 4.49348 5.16406 4.49292H13.994ZM4.70443 13.9221C4.6933 13.8824 4.68736 13.8414 4.68677 13.8002V4.97022C4.68736 4.92897 4.6933 4.88798 4.70443 4.84827L9.2416 9.3852L4.70443 13.9221ZM5.16406 14.2775C5.1228 14.2769 5.0818 14.2709 5.04212 14.2596L9.57905 9.72265L14.116 14.2596C14.0763 14.2709 14.0353 14.2769 13.994 14.2775H5.16406Z" fill="black"/>
<path d="M0.868042 4.49292H3.25452C3.38632 4.49292 3.49317 4.38607 3.49317 4.25427C3.49317 4.12247 3.38632 4.01562 3.25452 4.01562H0.868042C0.736241 4.01562 0.629395 4.12247 0.629395 4.25427C0.629395 4.38607 0.736241 4.49292 0.868042 4.49292Z" fill="black"/>
<path d="M0.868042 14.7546H3.25452C3.38632 14.7546 3.49317 14.6478 3.49317 14.516C3.49317 14.3842 3.38632 14.2773 3.25452 14.2773H0.868042C0.736241 14.2773 0.629395 14.3842 0.629395 14.516C0.629395 14.6478 0.736241 14.7546 0.868042 14.7546Z" fill="black"/>
<path d="M3.07112 6.79548C3.15547 6.89684 3.30602 6.91062 3.40738 6.82627C3.50873 6.74192 3.52251 6.59137 3.43816 6.49002L2.24492 5.05813C2.19804 5.0062 2.13136 4.97656 2.0614 4.97656C1.99144 4.97656 1.92476 5.0062 1.87788 5.05813L0.684643 6.49002C0.60029 6.59137 0.614073 6.74192 0.715428 6.82627C0.816784 6.91062 0.96733 6.89684 1.05168 6.79548L1.82275 5.87001V12.9044L1.05168 11.9789C0.96733 11.8776 0.816784 11.8638 0.715428 11.9481C0.614073 12.0325 0.60029 12.183 0.684643 12.2844L1.87788 13.7163C1.92322 13.7708 1.99047 13.8024 2.0614 13.8024C2.13233 13.8024 2.19958 13.7708 2.24492 13.7163L3.43816 12.2844C3.49273 12.2188 3.50817 12.1291 3.47867 12.0491C3.44918 11.969 3.37922 11.9108 3.29515 11.8964C3.21109 11.8819 3.12569 11.9134 3.07112 11.9789L2.30005 12.9044V5.87001L3.07112 6.79548Z" fill="black"/>
<path d="M14.7098 0.4375C14.578 0.4375 14.4712 0.544346 14.4712 0.676148V3.06263C14.4712 3.19443 14.578 3.30127 14.7098 3.30127C14.8416 3.30127 14.9485 3.19443 14.9485 3.06263V0.676148C14.9485 0.544346 14.8416 0.4375 14.7098 0.4375Z" fill="black"/>
<path d="M4.44812 0.4375C4.31632 0.4375 4.20947 0.544346 4.20947 0.676148V3.06263C4.20947 3.19443 4.31632 3.30127 4.44812 3.30127C4.57992 3.30127 4.68677 3.19443 4.68677 3.06263V0.676148C4.68677 0.544346 4.57992 0.4375 4.44812 0.4375Z" fill="black"/>
<path d="M7.01874 0.523552C6.97821 0.474817 6.91995 0.444209 6.85683 0.438478C6.7937 0.432747 6.73089 0.452366 6.68224 0.493005L5.25036 1.68624C5.19598 1.73159 5.16455 1.79873 5.16455 1.86953C5.16455 1.94032 5.19598 2.00747 5.25036 2.05281L6.68224 3.24605C6.74772 3.3007 6.83739 3.31627 6.91746 3.28688C6.99753 3.2575 7.05584 3.18764 7.07043 3.1036C7.08502 3.01957 7.05367 2.93414 6.98819 2.87948L6.06247 2.10817H13.0969L12.1711 2.87948C12.1057 2.93414 12.0743 3.01957 12.0889 3.1036C12.1035 3.18764 12.1618 3.2575 12.2419 3.28688C12.3219 3.31627 12.4116 3.3007 12.4771 3.24605L13.909 2.05281C13.9634 2.00747 13.9948 1.94032 13.9948 1.86953C13.9948 1.79873 13.9634 1.73159 13.909 1.68624L12.4771 0.493005C12.4116 0.438353 12.3219 0.422786 12.2419 0.452167C12.1618 0.481549 12.1035 0.551415 12.0889 0.635449C12.0743 0.719482 12.1057 0.804916 12.1711 0.859568L13.0969 1.63088H6.06247L6.98819 0.859568C7.08938 0.775196 7.10305 0.624788 7.01874 0.523552Z" fill="black"/>
</g>
<defs>
<clipPath id="clip0_1_5733">
<rect width="14.3189" height="14.3189" fill="white" transform="translate(0.627441 0.4375)"/>
</clipPath>
</defs>
</svg>
