<svg width="15" height="14" viewBox="0 0 15 14" fill="none" xmlns="http://www.w3.org/2000/svg">
<path d="M14.2323 7.31568H13.9937V2.30408C13.9937 1.11083 13.0391 0.15625 11.8459 0.15625C10.7896 0.15625 10.0298 0.939481 9.94485 2.08709C9.39031 2.19191 8.98208 2.66952 8.98208 3.25866C8.98208 3.40185 9.07753 3.4973 9.22072 3.4973H11.1299C11.2731 3.4973 11.3685 3.40185 11.3685 3.25866C11.3685 2.67604 10.9694 2.20239 10.4242 2.09058C10.4955 1.33224 10.951 0.633527 11.8459 0.633527C12.7766 0.633527 13.5164 1.37333 13.5164 2.30405V7.31566H6.33387C6.22592 6.76525 5.74998 6.36107 5.16372 6.36107C4.92508 6.0747 4.59097 5.88377 4.20914 5.88377C3.75572 5.88377 3.35001 6.14629 3.15908 6.52812C2.96815 6.43267 2.75337 6.36107 2.53859 6.36107C1.95232 6.36107 1.47639 6.76525 1.36844 7.31566H1.34534C0.939627 7.31566 0.629395 7.62589 0.629395 8.0316C0.629395 8.43731 0.939627 8.74754 1.34534 8.74754H1.63213L2.27606 11.3011C2.46699 12.0409 3.1352 12.5659 3.89888 12.5659H4.08981L3.77957 13.1864C3.70798 13.3058 3.75572 13.4489 3.87502 13.4967C3.89888 13.5205 3.94662 13.5205 3.97047 13.5205C4.06592 13.5205 4.13752 13.4728 4.18526 13.4012L4.60288 12.5659H11.2254L11.6311 13.3773C11.6788 13.4728 11.7504 13.5205 11.8459 13.5205C11.8936 13.5205 11.9174 13.5205 11.9413 13.4728C12.0368 13.425 12.0845 13.2818 12.0368 13.1625L11.7378 12.5646C12.4767 12.5384 13.1156 12.0224 13.3016 11.3249L13.9515 8.74754H14.2323C14.638 8.74754 14.9483 8.43731 14.9483 8.0316C14.9483 7.62592 14.638 7.31568 14.2323 7.31568ZM10.8674 3.02002H9.50709C9.60254 2.73365 9.88892 2.54272 10.1992 2.54272C10.5094 2.54272 10.7719 2.73365 10.8674 3.02002ZM2.53859 6.83838C2.75337 6.83838 2.9443 6.93383 3.11134 7.1009C3.15908 7.1725 3.25453 7.19635 3.34998 7.1725C3.44543 7.14864 3.49317 7.07705 3.51702 6.98157C3.58862 6.6236 3.875 6.36107 4.23297 6.36107C4.49549 6.36107 4.73413 6.48041 4.85346 6.71905C4.9012 6.8145 5.02051 6.86224 5.11598 6.83838C5.13984 6.83838 5.16372 6.83838 5.18758 6.83838C5.49781 6.83838 5.76033 7.02931 5.85578 7.31568H1.87035C1.96583 7.02931 2.22833 6.83838 2.53859 6.83838ZM12.872 11.1818C12.7288 11.7068 12.2515 12.0887 11.7027 12.0887H3.92273C3.37384 12.0887 2.89656 11.7068 2.75337 11.1818L2.13288 8.74757H13.4448L12.872 11.1818ZM14.2323 8.27027H13.755H1.82264H1.34534C1.20215 8.27027 1.1067 8.17482 1.1067 8.03163C1.1067 7.88844 1.20215 7.79299 1.34534 7.79299H1.58398H6.11828H14.2323C14.3755 7.79299 14.471 7.88844 14.471 8.03163C14.471 8.17482 14.3755 8.27027 14.2323 8.27027Z" fill="black"/>
<path d="M9.22155 4.57317C9.36474 4.57317 9.46019 4.47772 9.46019 4.33453V4.2152C9.46019 4.07201 9.36474 3.97656 9.22155 3.97656C9.07836 3.97656 8.98291 4.07201 8.98291 4.2152V4.33453C8.98291 4.47772 9.07836 4.57317 9.22155 4.57317Z" fill="black"/>
<path d="M9.22155 5.66949C9.36474 5.66949 9.46019 5.55015 9.46019 5.43085V5.16833C9.46019 5.02514 9.36474 4.92969 9.22155 4.92969C9.07836 4.92969 8.98291 5.02514 8.98291 5.16833V5.43085C8.98291 5.57401 9.07836 5.66949 9.22155 5.66949Z" fill="black"/>
<path d="M9.22155 6.60052C9.36474 6.60052 9.46019 6.50507 9.46019 6.36188V6.24254C9.46019 6.09936 9.36474 6.00391 9.22155 6.00391C9.07836 6.00391 8.98291 6.09936 8.98291 6.24254V6.36188C8.98291 6.50504 9.07836 6.60052 9.22155 6.60052Z" fill="black"/>
<path d="M10.1747 4.57317C10.3179 4.57317 10.4133 4.47772 10.4133 4.33453V4.2152C10.4133 4.07201 10.3179 3.97656 10.1747 3.97656C10.0315 3.97656 9.93604 4.07201 9.93604 4.2152V4.33453C9.93604 4.47772 10.0315 4.57317 10.1747 4.57317Z" fill="black"/>
<path d="M9.93604 5.43085C9.93604 5.57404 10.0315 5.66949 10.1747 5.66949C10.3179 5.66949 10.4133 5.55015 10.4133 5.43085V5.16833C10.4133 5.02514 10.3179 4.92969 10.1747 4.92969C10.0315 4.92969 9.93604 5.02514 9.93604 5.16833V5.43085Z" fill="black"/>
<path d="M9.93604 6.36188C9.93604 6.50507 10.0315 6.60052 10.1747 6.60052C10.3179 6.60052 10.4133 6.50507 10.4133 6.36188V6.24254C10.4133 6.09936 10.3179 6.00391 10.1747 6.00391C10.0315 6.00391 9.93604 6.09936 9.93604 6.24254V6.36188Z" fill="black"/>
<path d="M11.1298 4.57317C11.2729 4.57317 11.3684 4.47772 11.3684 4.33453V4.2152C11.3684 4.07201 11.2729 3.97656 11.1298 3.97656C10.9866 3.97656 10.8911 4.07201 10.8911 4.2152V4.33453C10.8911 4.47772 10.9866 4.57317 11.1298 4.57317Z" fill="black"/>
<path d="M10.8911 5.43085C10.8911 5.57404 10.9866 5.66949 11.1298 5.66949C11.2729 5.66949 11.3684 5.55018 11.3684 5.43085V5.16833C11.3684 5.02514 11.273 4.92969 11.1298 4.92969C10.9866 4.92969 10.8911 5.02514 10.8911 5.16833L10.8911 5.43085Z" fill="black"/>
<path d="M10.8911 6.36188C10.8911 6.50507 10.9866 6.60052 11.1298 6.60052C11.2729 6.60052 11.3684 6.50507 11.3684 6.36188V6.24254C11.3684 6.09936 11.2729 6.00391 11.1298 6.00391C10.9866 6.00391 10.8911 6.09936 10.8911 6.24254V6.36188Z" fill="black"/>
</svg>
