<svg width="15" height="15" viewBox="0 0 15 15" fill="none" xmlns="http://www.w3.org/2000/svg">
<g clip-path="url(#clip0_1_5746)">
<path d="M14.0515 7.02741V4.01748C14.0515 3.65459 13.7563 3.35938 13.3934 3.35938H2.18428C1.82138 3.35938 1.52617 3.65459 1.52617 4.01748V7.02741C0.812016 7.38004 0.629395 7.74752 0.629395 8.03077V11.1913C0.629395 11.4306 0.824042 11.6252 1.06332 11.6252H1.55209C1.75821 11.6252 1.93717 11.4785 1.97761 11.2764L2.09367 10.6961C2.11587 10.585 2.21429 10.5044 2.32763 10.5044H13.25C13.3634 10.5044 13.4618 10.585 13.484 10.6962L13.6001 11.2765C13.6405 11.4786 13.8195 11.6253 14.0256 11.6253H14.5143C14.7536 11.6253 14.9483 11.4306 14.9483 11.1913V8.03077C14.9483 7.74752 14.7656 7.38004 14.0515 7.02741ZM1.94564 4.01748C1.94564 3.8859 2.0527 3.77887 2.18425 3.77887H13.3934C13.525 3.77887 13.632 3.88593 13.632 4.01748V6.84644C13.3855 6.75292 13.0955 6.66175 12.7548 6.57494C12.69 6.55844 12.6239 6.54239 12.5571 6.52659C12.6526 6.38418 12.7064 6.21445 12.7064 6.03513V5.36256C12.7064 4.87606 12.3106 4.48027 11.8241 4.48027H8.46137C8.19211 4.48027 7.95078 4.60165 7.78883 4.79241C7.62688 4.60165 7.38555 4.48027 7.11629 4.48027H3.75351C3.267 4.48027 2.87122 4.87608 2.87122 5.36256V6.03513C2.87122 6.21339 2.92514 6.38357 3.02098 6.52647C2.95403 6.54228 2.88778 6.55836 2.82284 6.57491C2.48218 6.66175 2.19214 6.75292 1.94564 6.84641V4.01748ZM12.2869 5.36259V6.03516C12.2869 6.19342 12.2075 6.33764 12.0769 6.42269C10.9067 6.19155 9.49177 6.06161 7.99855 6.05046V5.36259H7.99858C7.99858 5.1074 8.20617 4.8998 8.46137 4.8998H11.8241C12.0793 4.8998 12.2869 5.1074 12.2869 5.36259ZM7.57905 5.36256V6.05043C6.08581 6.06159 4.67078 6.19155 3.50066 6.42269C3.37037 6.33753 3.29072 6.19222 3.29072 6.03513V5.36256C3.29072 5.10737 3.49831 4.89977 3.75351 4.89977H7.11626C7.37146 4.89977 7.57905 5.1074 7.57905 5.36256ZM14.5288 11.1913C14.5288 11.1993 14.5223 11.2058 14.5143 11.2058H14.0256C14.0187 11.2058 14.0128 11.2009 14.0114 11.1942L13.8954 10.6139C13.8341 10.3074 13.5627 10.0849 13.25 10.0849H2.32763C2.015 10.0849 1.74361 10.3074 1.68231 10.6139L1.56625 11.1942C1.5649 11.2009 1.55895 11.2058 1.55209 11.2058H1.06332C1.05535 11.2058 1.04889 11.1993 1.04889 11.1913V9.38345H12.4967C12.6125 9.38345 12.7064 9.28954 12.7064 9.1737C12.7064 9.05787 12.6125 8.96395 12.4967 8.96395H1.04889V8.03079C1.04889 7.75485 1.54214 7.33429 2.92645 6.98141C4.22265 6.65101 5.94947 6.46906 7.78883 6.46906C9.62819 6.46906 11.355 6.65101 12.6512 6.98141C14.0355 7.33426 14.5287 7.75485 14.5287 8.03079V8.96395H13.3934C13.2775 8.96395 13.1836 9.05787 13.1836 9.1737C13.1836 9.28954 13.2775 9.38345 13.3934 9.38345H14.5288V11.1913Z" fill="black"/>
</g>
<defs>
<clipPath id="clip0_1_5746">
<rect width="14.3189" height="14.3189" fill="white" transform="translate(0.627441 0.328125)"/>
</clipPath>
</defs>
</svg>
