<svg width="27" height="29" viewBox="0 0 27 29" fill="none" xmlns="http://www.w3.org/2000/svg">
<path d="M26.346 4.59638L22.4137 0.66419C22.1667 0.417268 21.8384 0.28125 21.4891 0.28125H4.93299C4.21206 0.28125 3.62548 0.867828 3.62548 1.58876V14.534H2.70603C1.73945 14.534 0.953125 15.3204 0.953125 16.2869V24.3041C0.953125 25.2707 1.73945 26.0571 2.70603 26.0571H16.5134C17.2344 26.0571 17.8209 25.4705 17.8209 24.7496V18.514C17.8209 17.793 17.2344 17.2065 16.5134 17.2065H2.70603C2.19901 17.2065 1.78657 16.794 1.78657 16.287C1.78657 15.78 2.19901 15.3675 2.70603 15.3675H3.62548V15.8418C3.62548 16.0719 3.81206 16.2585 4.0422 16.2585C4.27235 16.2585 4.45893 16.0719 4.45893 15.8418V1.58876C4.45893 1.32733 4.67162 1.11469 4.93299 1.11469H20.9961V5.15196C20.9961 5.62735 21.3828 6.01413 21.8582 6.01413H25.8954V27.422C25.8954 27.6834 25.6828 27.896 25.4214 27.896H4.93299C4.67157 27.896 4.45893 27.6834 4.45893 27.422C4.45893 27.1918 4.27235 27.0053 4.0422 27.0053C3.81206 27.0053 3.62548 27.1918 3.62548 27.422C3.62548 28.143 4.21206 28.7295 4.93299 28.7295H25.4214C26.1424 28.7295 26.7289 28.1429 26.7289 27.422V5.52095C26.7289 5.17174 26.5929 4.84336 26.346 4.59638ZM2.70603 18.0399H16.5134C16.7748 18.0399 16.9875 18.2526 16.9875 18.514V24.7496C16.9875 25.011 16.7748 25.2237 16.5134 25.2237H2.70603C2.19901 25.2237 1.78657 24.8112 1.78657 24.3042V17.7789C2.05399 17.9444 2.36904 18.0399 2.70603 18.0399ZM21.8295 5.15196V1.25877L25.7515 5.18068H21.8582C21.8424 5.18068 21.8295 5.16779 21.8295 5.15196Z" fill="#00204A"/>
<path d="M12.7605 23.8159C12.9906 23.8159 13.1772 23.6293 13.1772 23.3992V22.0138H14.0801C14.3103 22.0138 14.4969 21.8272 14.4969 21.5971C14.4969 21.367 14.3103 21.1804 14.0801 21.1804H13.1772V20.2788H14.1941C14.4242 20.2788 14.6108 20.0922 14.6108 19.862C14.6108 19.6318 14.4242 19.4453 14.1941 19.4453H12.7605C12.5303 19.4453 12.3438 19.6318 12.3438 19.862V23.3991C12.3438 23.6293 12.5303 23.8159 12.7605 23.8159Z" fill="#00204A"/>
<path d="M8.38208 23.6547C8.46015 23.7322 8.56572 23.7756 8.67568 23.7756H8.67723C8.70685 23.7755 9.405 23.7728 9.68387 23.7679C10.7136 23.7499 11.4611 22.8508 11.4611 21.63C11.4611 20.3467 10.7325 19.4844 9.64797 19.4844H8.66868C8.55799 19.4844 8.45193 19.5284 8.37375 19.6067C8.29557 19.6851 8.25173 19.7912 8.25195 19.9019V19.9046V19.9047V23.3027C8.25195 23.3313 8.25484 23.3593 8.26034 23.3863C8.26701 23.4874 8.3098 23.5829 8.38208 23.6547ZM9.64797 20.3178C10.3703 20.3178 10.6276 20.9956 10.6276 21.63C10.6276 22.5197 10.1463 22.9263 9.66931 22.9346C9.53674 22.9369 9.30021 22.9388 9.09096 22.9401C9.08962 22.5312 9.08684 20.7431 9.08612 20.3178H9.64797Z" fill="#00204A"/>
<path d="M4.92063 23.8303C5.15077 23.8303 5.33735 23.6438 5.33735 23.4136V22.2803C5.54427 22.2792 5.77952 22.2781 5.91276 22.2781C6.70787 22.2781 7.35473 21.6402 7.35473 20.8559C7.35473 20.0716 6.70787 19.4336 5.91276 19.4336H4.92063C4.80989 19.4336 4.70371 19.4777 4.62548 19.5561C4.54758 19.6342 4.50396 19.7401 4.50396 19.8503H4.50391V23.4135C4.50391 23.6438 4.69049 23.8303 4.92063 23.8303ZM5.91276 20.2671C6.24264 20.2671 6.52129 20.5368 6.52129 20.8559C6.52129 21.1751 6.24264 21.4448 5.91276 21.4448C5.78041 21.4448 5.5481 21.4458 5.34196 21.4469C5.34085 21.234 5.33919 20.4898 5.33857 20.2671H5.91276V20.2671Z" fill="#00204A"/>
<path d="M12.727 12.365C11.7029 12.6883 10.6517 13.1358 10.0909 13.7146C9.62825 14.1921 9.5444 14.7462 9.86083 15.2348C10.0756 15.5663 10.3708 15.7396 10.7027 15.7396C10.8301 15.7396 10.963 15.714 11.0987 15.6621C11.5884 15.4749 12.1172 14.9422 12.7155 14.0336C12.9086 13.7403 13.1042 13.4143 13.2988 13.0616C13.3696 13.0408 13.4419 13.0201 13.5158 12.9994C14.6918 12.6704 16.0223 12.4315 17.19 12.3318C17.9018 13.0201 18.6376 13.5564 19.2649 13.7027C19.9549 13.8636 20.502 13.5481 20.7279 12.8585C20.8648 12.4409 20.7072 12.0471 20.3063 11.8051C19.8942 11.5562 19.1779 11.436 18.1779 11.4475C17.965 11.4499 17.7402 11.4586 17.5062 11.4731C17.057 11.0098 16.5896 10.4561 16.1395 9.84465C15.7908 9.37097 15.4791 8.89697 15.2155 8.44641C15.2442 8.34767 15.2714 8.25027 15.2972 8.15459C15.5821 7.09817 15.6837 6.28934 15.5992 5.75049C15.4771 4.97233 14.9749 4.86182 14.7647 4.85048C14.0487 4.81175 13.5665 5.17297 13.4748 5.81667C13.4019 6.32801 13.5738 7.03155 13.9858 7.90767C14.0838 8.11592 14.1936 8.33056 14.3143 8.54975C14.2693 8.69399 14.2206 8.84407 14.1678 9.00026C13.7836 10.1367 13.2633 11.3477 12.727 12.365ZM10.7258 14.9039C10.6961 14.9077 10.646 14.9139 10.5603 14.7816C10.4906 14.674 10.4868 14.5927 10.5463 14.4818C10.6854 14.2225 11.1605 13.8585 12.0796 13.4826C11.4381 14.4776 10.9586 14.8749 10.7258 14.9039ZM19.9428 12.5707C19.9422 12.5758 19.9406 12.5851 19.936 12.5991C19.8319 12.9167 19.692 12.9466 19.4542 12.8911C19.1638 12.8234 18.795 12.6088 18.3836 12.2805C19.4975 12.2894 19.8861 12.4901 19.9428 12.5707ZM14.2998 5.93435C14.3168 5.81522 14.3359 5.68126 14.6529 5.68126C14.6729 5.68126 14.694 5.68182 14.7164 5.68287C14.8113 5.7985 14.8601 6.31295 14.6405 7.33109C14.3819 6.73796 14.2555 6.24522 14.2998 5.93435ZM14.8801 9.4906C15.063 9.77169 15.2598 10.0556 15.4683 10.3388C15.7675 10.7452 16.1054 11.1671 16.4628 11.5698C16.0493 11.6197 15.6228 11.6841 15.1962 11.7616C14.9074 11.814 14.4041 11.9128 13.8149 12.0598C13.9456 11.7888 14.0745 11.5079 14.2005 11.2191C14.4511 10.6452 14.6816 10.058 14.8801 9.4906Z" fill="#00204A"/>
</svg>
