<svg width="15" height="15" viewBox="0 0 15 15" fill="none" xmlns="http://www.w3.org/2000/svg">
<g clip-path="url(#clip0_1_5773)">
<path fill-rule="evenodd" clip-rule="evenodd" d="M2.19425 9.12281V11.996C2.19425 12.1195 2.29448 12.2197 2.41798 12.2197H13.1571C13.2806 12.2197 13.3809 12.1195 13.3809 11.996V11.3601L13.9227 11.7445C13.9908 11.7928 14.0803 11.7991 14.1545 11.7606C14.2293 11.7226 14.2758 11.6456 14.2758 11.5619V10.2061C14.2758 10.1336 14.2409 10.0656 14.1814 10.0236L8.01129 5.64243V4.99495L9.22929 4.13045C9.33041 4.05886 9.35413 3.91925 9.28253 3.81812L8.64132 2.91469C8.60686 2.86636 8.55451 2.8337 8.49634 2.82341C8.43772 2.81356 8.37776 2.82743 8.32943 2.86189L1.39373 7.78624C1.33422 7.8283 1.29932 7.89631 1.29932 7.9688V9.32462C1.29932 9.4083 1.34585 9.48526 1.42058 9.52329C1.49486 9.56178 1.58435 9.55551 1.65237 9.50719L2.19425 9.12281ZM7.56382 5.3122L2.64171 8.80511V11.7723H12.9334V11.0424L7.65824 7.2994C7.59917 7.25733 7.56382 7.18932 7.56382 7.11683V5.3122ZM8.01129 6.19147V7.00138L13.8283 11.1288V10.3216L8.01129 6.19147ZM8.40595 3.35634L8.78809 3.89464L1.74678 8.89147V8.08425L8.40595 3.35634Z" fill="black"/>
</g>
<defs>
<clipPath id="clip0_1_5773">
<rect width="14.3189" height="14.3189" fill="white" transform="translate(0.627441 0.359375)"/>
</clipPath>
</defs>
</svg>
