<svg width="15" height="15" viewBox="0 0 15 15" fill="none" xmlns="http://www.w3.org/2000/svg">
<path d="M14.7096 1.95606C14.8414 1.95606 14.9483 1.8492 14.9483 1.71741V0.285523C14.9483 0.15373 14.8414 0.046875 14.7096 0.046875H0.868042C0.736249 0.046875 0.629395 0.15373 0.629395 0.285523V1.71741C0.629395 1.8492 0.736249 1.95606 0.868042 1.95606H1.34534V13.8885H0.868042C0.736249 13.8885 0.629395 13.9953 0.629395 14.1271C0.629395 14.2589 0.736249 14.3657 0.868042 14.3657H14.7096C14.8414 14.3657 14.9483 14.2589 14.9483 14.1271C14.9483 13.9953 14.8414 13.8885 14.7096 13.8885H14.2323V1.95606H14.7096ZM12.8004 13.8885H2.77723V12.4566H12.8004V13.8885ZM12.8004 11.9793H2.77723V10.5474H12.8004V11.9793ZM12.8004 10.0701H2.77723V8.6382H12.8004V10.0701ZM12.8004 8.1609H2.77723V6.72901H12.8004V8.1609ZM12.8004 6.25172H2.77723V4.81983H12.8004V6.25172ZM12.8004 4.34254H2.77723V2.91065H12.8004V4.34254ZM13.755 13.8885H13.2777V2.672C13.2777 2.54021 13.1709 2.43335 13.0391 2.43335H2.53858C2.40678 2.43335 2.29993 2.54021 2.29993 2.672V13.8885H1.82263V1.95606H13.755V13.8885ZM1.10669 1.47876V0.524171H14.471V1.47876H1.10669Z" fill="black"/>
<path d="M7.07312 13.6492H8.50501C8.6368 13.6492 8.74366 13.5423 8.74366 13.4105C8.74366 13.2787 8.6368 13.1719 8.50501 13.1719H7.07312C6.94133 13.1719 6.83447 13.2787 6.83447 13.4105C6.83447 13.5423 6.94133 13.6492 7.07312 13.6492Z" fill="black"/>
</svg>
