<svg width="15" height="15" viewBox="0 0 15 15" fill="none" xmlns="http://www.w3.org/2000/svg">
<g clip-path="url(#clip0_1_5727)">
<path d="M1.07861 13.7336C1.07861 13.8572 1.17879 13.9573 1.30235 13.9573H14.2716C14.3952 13.9573 14.4953 13.8572 14.4953 13.7336V10.5074C14.4953 10.3837 14.3952 10.2836 14.2716 10.2836H13.2828V7.28139C13.2828 7.15772 13.1827 7.05766 13.0591 7.05766H12.3085V4.0554C12.3085 3.93174 12.2083 3.83167 12.0848 3.83167H11.5074V0.829201C11.5074 0.705537 11.4072 0.605469 11.2837 0.605469H4.29029C4.16673 0.605469 4.06655 0.705537 4.06655 0.829201V3.83167H3.4892C3.36564 3.83167 3.26547 3.93174 3.26547 4.0554V7.05766H2.51485C2.39129 7.05766 2.29112 7.15772 2.29112 7.28139V10.2836H1.30235C1.17879 10.2836 1.07861 10.3837 1.07861 10.5074V13.7336ZM4.51402 1.05293H11.0599V3.83167H4.51402V1.05293ZM3.71293 4.27914H4.29029H11.2837H11.861V7.05766H3.71293V4.27914ZM2.73858 7.50512H3.4892H12.0848H12.8354V10.2836H2.73858V7.50512ZM1.52608 10.7311H2.51485H13.0591H14.0479V13.5098H1.52608V10.7311Z" fill="black"/>
</g>
<defs>
<clipPath id="clip0_1_5727">
<rect width="14.3189" height="14.3189" fill="white" transform="translate(0.627441 0.121094)"/>
</clipPath>
</defs>
</svg>
