<svg width="12" height="12" viewBox="0 0 12 12" fill="none" xmlns="http://www.w3.org/2000/svg">
<g clip-path="url(#clip0_1_5814)">
<path d="M10.948 10.9961L7.84481 7.89282C9.25868 6.17259 9.16248 3.61895 7.55585 2.01233C5.84669 0.303181 3.06572 0.303181 1.35657 2.01233C-0.352581 3.72148 -0.352581 6.50246 1.35657 8.21161C2.96276 9.81779 5.51607 9.91505 7.23706 8.50057L10.3403 11.6038C10.5081 11.7716 10.7802 11.7716 10.948 11.6038C11.1159 11.436 11.1159 11.1639 10.948 10.9961ZM6.94812 7.60386C5.57408 8.9779 3.33836 8.97788 1.96432 7.60386C0.590279 6.22982 0.590279 3.9941 1.96432 2.62006C3.33832 1.24608 5.57403 1.24598 6.94812 2.62006C8.32216 3.9941 8.32216 6.22982 6.94812 7.60386Z" fill="#F4D059"/>
<path d="M6.56033 4.67443H4.88596V3.00005C4.88596 2.76271 4.69356 2.57031 4.45622 2.57031C4.21888 2.57031 4.02648 2.76271 4.02648 3.00005V4.67443H2.35211C2.11476 4.67443 1.92236 4.86683 1.92236 5.10417C1.92236 5.34151 2.11476 5.53391 2.35211 5.53391H4.02648V7.20828C4.02648 7.44562 4.21888 7.63802 4.45622 7.63802C4.69356 7.63802 4.88596 7.44562 4.88596 7.20828V5.53391H6.56033C6.79767 5.53391 6.99007 5.34151 6.99007 5.10417C6.99007 4.86683 6.79767 4.67443 6.56033 4.67443Z" fill="#F4D059"/>
</g>
<defs>
<clipPath id="clip0_1_5814">
<rect width="10.9992" height="10.9992" fill="white" transform="translate(0.074707 0.730469)"/>
</clipPath>
</defs>
</svg>
